<?xml version="1.0" standalone="no"?>
<!DOCTYPE svg PUBLIC "-//W3C//DTD SVG 20010904//EN"
 "http://www.w3.org/TR/2001/REC-SVG-20010904/DTD/svg10.dtd">
<svg version="1.0" xmlns="http://www.w3.org/2000/svg"
 width="512.000000pt" height="512.000000pt" viewBox="0 0 512.000000 512.000000"
 preserveAspectRatio="xMidYMid meet">
<metadata>
Created by potrace 1.11, written by Peter Selinger 2001-2013
</metadata>
<g transform="translate(0.000000,512.000000) scale(0.100000,-0.100000)"
fill="#000000" stroke="none">
<path d="M0 4580 l0 -540 243 0 242 0 27 73 c43 114 96 195 188 287 92 92 173
145 287 188 l73 27 0 253 0 252 -530 0 -530 0 0 -540z"/>
<path d="M1480 4868 l0 -253 73 -27 c114 -43 195 -96 287 -188 92 -92 145
-173 188 -287 l27 -73 778 0 777 0 0 540 0 540 -1065 0 -1065 0 0 -252z"/>
<path d="M4030 4580 l0 -540 545 0 545 0 0 540 0 540 -545 0 -545 0 0 -540z"/>
<path d="M1140 4263 c-14 -3 -27 -8 -30 -12 -3 -3 -21 -14 -40 -24 -19 -10
-46 -24 -59 -31 -40 -24 -115 -109 -136 -156 -11 -25 -24 -48 -30 -52 -6 -4
-10 -65 -10 -153 0 -88 4 -149 10 -153 6 -4 19 -27 30 -52 21 -47 96 -132 136
-156 13 -7 40 -21 59 -31 19 -10 38 -22 42 -28 4 -6 69 -10 158 -10 89 0 154
4 158 10 4 6 23 18 42 28 19 10 46 24 59 31 40 24 115 109 136 156 11 25 24
48 30 52 6 4 10 65 10 153 0 88 -4 149 -10 153 -6 4 -19 27 -30 52 -21 47 -96
132 -136 156 -13 7 -40 21 -59 31 -19 10 -38 22 -42 28 -7 10 -246 17 -288 8z"/>
<path d="M0 2405 l0 -1215 530 0 530 0 0 928 0 927 -73 27 c-114 43 -195 96
-287 188 -92 92 -145 173 -188 287 l-27 73 -242 0 -243 0 0 -1215z"/>
<path d="M2028 3547 c-43 -114 -96 -195 -188 -287 -92 -92 -173 -145 -287
-188 l-73 -27 0 -927 0 -928 1065 0 1065 0 0 1215 0 1215 -777 0 -778 0 -27
-73z"/>
<path d="M4030 2405 l0 -1215 545 0 545 0 0 1215 0 1215 -545 0 -545 0 0
-1215z"/>
<path d="M0 385 l0 -385 530 0 530 0 0 385 0 385 -530 0 -530 0 0 -385z"/>
<path d="M1480 385 l0 -385 1065 0 1065 0 0 385 0 385 -1065 0 -1065 0 0 -385z"/>
<path d="M4030 385 l0 -385 545 0 545 0 0 385 0 385 -545 0 -545 0 0 -385z"/>
</g>
</svg>
